<svg xmlns="http://www.w3.org/2000/svg" xmlns:xlink="http://www.w3.org/1999/xlink" id="Layer_1" x="0px" y="0px" viewBox="0 0 730.8 389.9" style="enable-background:new 0 0 730.8 389.9;" xml:space="preserve"><style type="text/css">	.st0{fill:#666152;}</style><path class="st0" d="M266.8,126.5h-52.4l-66.8,178.1L81,126.5H37.5l86.8,225.4h5.5h18.3h24.1l20.6-57h95.1l20.9,57H352L266.8,126.5z   M205.9,258.5l34.1-95.8l34.8,95.8H205.9z"></path><path class="st0" d="M310.9,164.3v-37.8h199.9v37.8h-79.6v187.6h-40.4V164.3H310.9z"></path><path class="st0" d="M532.6,351.9V126.5h160.8v35.8H573V221h115.7v34.8H573v60.3h119.3v35.8H532.6z"></path><path class="st0" d="M653.5,38.1l-33.1,51h-20.2l18.9-51H653.5z"></path></svg>
