<svg xmlns="http://www.w3.org/2000/svg" xml:space="preserve" id="Layer_1" x="0" y="0" style="enable-background:new 0 0 730.8 389.9" viewBox="0 0 730.8 389.9"><style>.st0{fill:#666152}</style><path d="M266.8 126.5h-52.4l-66.8 178.1L81 126.5H37.5l86.8 225.4H172.2l20.6-57h95.1l20.9 57H352l-85.2-225.4zm-60.9 132 34.1-95.8 34.8 95.8h-68.9zM310.9 164.3v-37.8h199.9v37.8h-79.6v187.6h-40.4V164.3h-79.9zM532.6 351.9V126.5h160.8v35.8H573V221h115.7v34.8H573v60.3h119.3v35.8H532.6zM653.5 38.1l-33.1 51h-20.2l18.9-51h34.4z" class="st0"/></svg>